<?xml version="1.0" encoding="utf-8"?>
<!-- Generator: Adobe Illustrator 24.0.3, SVG Export Plug-In . SVG Version: 6.00 Build 0)  -->
<svg version="1.1" id="Layer_1" xmlns="http://www.w3.org/2000/svg" xmlns:xlink="http://www.w3.org/1999/xlink" x="0px" y="0px"
	 viewBox="0 0 1000 325" style="enable-background:new 0 0 1000 325;" xml:space="preserve">
<style type="text/css">
	.st0{fill:#FFFFFF;}
</style>
<g>
	<g>
		<path class="st0" d="M97.06,80.73c-8.68,0-16.95-5.06-20.62-13.54c-4.93-11.38,0.3-24.61,11.68-29.54
			c33.84-14.66,69.83-22.1,106.97-22.1c31.02,0,51.81,5.15,79.32,14.65c11.73,4.05,17.95,16.84,13.9,28.56
			c-4.04,11.72-16.83,17.95-28.56,13.9c-23.92-8.26-39.7-12.19-64.67-12.19c-30.96,0-60.94,6.19-89.11,18.4
			C103.07,80.13,100.04,80.73,97.06,80.73z"/>
	</g>
	<g>
		<path class="st0" d="M97.05,283.67c-12.4,0-22.46-10.06-22.46-22.46v-68.32c0-37.22,23.48-70.56,58.42-82.96
			c19.9-7.07,40.78-10.65,62.08-10.65c33.86,0,56.9,9.22,83.09,24.11c10.79,6.13,14.56,19.84,8.43,30.62
			c-6.13,10.78-19.83,14.56-30.62,8.43c-21.29-12.1-36.56-18.24-60.9-18.24c-16.16,0-32,2.71-47.05,8.06
			c-17.06,6.06-28.53,22.39-28.53,40.63v68.32C119.51,273.61,109.45,283.67,97.05,283.67z"/>
	</g>
	<g>
		<path class="st0" d="M366.84,282.13L366.84,282.13c-13.94,0-25.23-11.3-25.23-25.23V40.82c0-13.94,11.3-25.23,25.23-25.23h0
			c13.94,0,25.23,11.3,25.23,25.23V256.9C392.07,270.83,380.78,282.13,366.84,282.13z"/>
		<path class="st0" d="M555.19,201.81v-80.67c0-13.94,11.3-25.23,25.23-25.23h0c13.94,0,25.23,11.3,25.23,25.23v138.25
			c0,12.56-10.18,22.74-22.74,22.74h-1.07c-12.56,0-22.74-10.18-22.74-22.74v0c-9.72,18.01-27.96,27.01-54.73,27.01
			c-21.8,0-38.56-6.69-50.29-20.08c-11.73-13.38-17.59-31.45-17.59-54.2v-90.98c0-13.94,11.3-25.23,25.23-25.23h0
			c13.94,0,25.23,11.3,25.23,25.23l0,85.29c0,24.41,10.31,36.61,30.92,36.61c12.32,0,21.62-3.55,27.9-10.66
			C552.05,225.27,555.19,215.08,555.19,201.81z"/>
		<path class="st0" d="M699.13,63.21c-5.69,5.69-13.03,8.53-22.03,8.53c-9.01,0-16.35-2.84-22.03-8.53
			c-5.69-5.69-8.53-12.91-8.53-21.68c0-8.76,2.84-16.05,8.53-21.86c5.69-5.8,13.03-8.71,22.03-8.71c9,0,16.35,2.9,22.03,8.71
			c5.69,5.81,8.53,13.09,8.53,21.86C707.66,50.3,704.81,57.52,699.13,63.21z M651.86,256.9V121.14c0-13.94,11.3-25.23,25.23-25.23
			l0,0c13.94,0,25.23,11.3,25.23,25.23V256.9c0,13.94-11.3,25.23-25.23,25.23l0,0C663.16,282.13,651.86,270.83,651.86,256.9z"/>
		<path class="st0" d="M877.53,115.81V38.33c0-12.56,10.18-22.74,22.74-22.74h4.98c12.56,0,22.74,10.18,22.74,22.74v221.06
			c0,12.56-10.18,22.74-22.74,22.74h-1.07c-12.56,0-22.74-10.18-22.74-22.74v0c-12.32,18.01-31.99,27.01-59,27.01
			c-26.3,0-47.15-9.24-62.55-27.72c-15.41-18.48-23.1-41.7-23.1-69.66c0-27.95,7.7-51.18,23.1-69.66
			c15.4-18.48,36.25-27.72,62.55-27.72c12.32,0,23.28,2.31,32.88,6.93S872.32,108.94,877.53,115.81z M866.34,227.05
			c8.41-9.95,12.62-22.62,12.62-38.03c0-15.4-4.21-28.07-12.62-38.03c-8.41-9.95-19.49-14.93-33.23-14.93
			c-13.74,0-24.82,4.98-33.23,14.93c-8.41,9.95-12.62,22.63-12.62,38.03c0,15.41,4.21,28.08,12.62,38.03
			c8.41,9.95,19.48,14.93,33.23,14.93C846.85,241.97,857.93,237,866.34,227.05z"/>
	</g>
</g>
</svg>
